Coordinates
version=1
nRows=13
nColumns=40
inDegrees=yes

Units are S.I. units (second, meters, Newtons, ...)
If the header above contains a line with 'inDegrees', this indicates whether rotational values are in degrees (yes) or radians (no).

endheader
time	pelvis_tilt	pelvis_list	pelvis_rotation	pelvis_tx	pelvis_ty	pelvis_tz	hip_flexion_r	hip_adduction_r	hip_rotation_r	knee_angle_r	knee_angle_r_beta	ankle_angle_r	subtalar_angle_r	mtp_angle_r	hip_flexion_l	hip_adduction_l	hip_rotation_l	knee_angle_l	knee_angle_l_beta	ankle_angle_l	subtalar_angle_l	mtp_angle_l	lumbar_extension	lumbar_bending	lumbar_rotation	arm_flex_r	arm_add_r	arm_rot_r	elbow_flex_r	pro_sup_r	wrist_flex_r	wrist_dev_r	arm_flex_l	arm_add_l	arm_rot_l	elbow_flex_l	pro_sup_l	wrist_flex_l	wrist_dev_l
      5.38000000	    -51.07209483	     -8.03770828	     11.40533346	      0.02691804	      0.60840461	     -1.17172095	    110.60217819	    -47.92955964	     -2.89684209	     78.20671033	      1.36496459	     11.61544978	    -12.47221381	      0.00000000	    115.89776861	    -23.19355811	     -2.83633796	     71.26649707	      1.24383502	      4.34627092	     -1.07240348	      0.00000000	      0.00000000	      0.00000000	      0.00000000	     44.99992064	    -14.99999999	     44.99992064	     75.00017585	     45.00000026	      0.00000000	      0.00000000	     44.99992064	    -14.99999999	     44.99992064	     75.00017585	     45.00000026	      0.00000000	      0.00000000
      5.38500000	    -50.95736512	     -8.09177199	     11.34987109	      0.02743420	      0.61076802	     -1.17184258	    109.87026592	    -47.88152650	     -3.48968778	     77.76922745	      1.35732908	     11.51949623	    -12.38765422	      0.00000000	    115.52484527	    -23.26642943	     -2.91807400	     70.94845667	      1.23828417	      4.38815548	     -0.74484731	      0.00000000	      0.00000000	      0.00000000	      0.00000000	     44.99992075	    -14.99999999	     44.99992075	     75.00017585	     45.00000026	      0.00000000	      0.00000000	     44.99992075	    -14.99999999	     44.99992075	     75.00017585	     45.00000026	      0.00000000	      0.00000000
      5.39000000	    -50.99418507	     -8.04968280	     11.35864852	      0.02757989	      0.61284452	     -1.17203748	    109.52505748	    -47.83547581	     -3.73906227	     77.34651505	      1.34995135	     11.39390621	    -12.36647627	      0.00000000	    115.20437054	    -23.23243220	     -3.13788851	     70.54452616	      1.23123425	      4.13195188	     -0.85072034	      0.00000000	      0.00000000	      0.00000000	      0.00000000	     44.99992085	    -14.99999999	     44.99992085	     75.00017585	     45.00000026	      0.00000000	      0.00000000	     44.99992085	    -14.99999999	     44.99992085	     75.00017585	     45.00000026	      0.00000000	      0.00000000
      5.39500000	    -51.01225297	     -7.80024446	     11.48880973	      0.02776680	      0.61483199	     -1.17231523	    109.47597113	    -47.86422263	     -3.56663128	     76.98376610	      1.34362019	     11.26067142	    -12.33227421	      0.00000000	    114.68617752	    -23.16893958	     -3.62744067	     70.15330712	      1.22440619	      4.07582070	     -0.79264359	      0.00000000	      0.00000000	      0.00000000	      0.00000000	     44.99992096	    -14.99999999	     44.99992096	     75.00017585	     45.00000026	      0.00000000	      0.00000000	     44.99992096	    -14.99999999	     44.99992096	     75.00017585	     45.00000026	      0.00000000	      0.00000000
      5.40000000	    -50.95125745	     -7.78569608	     11.52135881	      0.02817205	      0.61700330	     -1.17261214	    108.97205588	    -47.88047994	     -3.91736767	     76.57567760	      1.33649770	     11.15381928	    -12.26832355	      0.00000000	    114.29540673	    -23.13856789	     -3.82436538	     69.79921988	      1.21822620	      3.96240061	     -0.70994313	      0.00000000	      0.00000000	      0.00000000	      0.00000000	     44.99992107	    -14.99999999	     44.99992107	     75.00017585	     45.00000026	      0.00000000	      0.00000000	     44.99992107	    -14.99999999	     44.99992107	     75.00017585	     45.00000026	      0.00000000	      0.00000000
      5.40500000	    -50.86109666	     -7.82452597	     11.52426535	      0.02865033	      0.61922874	     -1.17288550	    108.33752638	    -47.86622453	     -4.38543734	     76.14735227	      1.32902201	     11.06299393	    -12.23684897	      0.00000000	    113.92161818	    -23.12381754	     -3.93804400	     69.45027621	      1.21213599	      3.87311422	     -0.60652976	      0.00000000	      0.00000000	      0.00000000	      0.00000000	     44.99992116	    -14.99999999	     44.99992116	     75.00017585	     45.00000026	      0.00000000	      0.00000000	     44.99992116	    -14.99999999	     44.99992116	     75.00017585	     45.00000026	      0.00000000	      0.00000000
      5.41000000	    -50.81993629	     -7.76019632	     11.58667449	      0.02903936	      0.62119837	     -1.17317636	    107.96359045	    -47.89737480	     -4.59264538	     75.78021671	      1.32261429	     10.95922907	    -12.17411876	      0.00000000	    113.52618653	    -23.08131780	     -4.19248107	     69.10883374	      1.20617669	      3.76838078	     -0.52991120	      0.00000000	      0.00000000	      0.00000000	      0.00000000	     44.99992128	    -14.99999999	     44.99992128	     75.00017585	     45.00000026	      0.00000000	      0.00000000	     44.99992128	    -14.99999999	     44.99992128	     75.00017585	     45.00000026	      0.00000000	      0.00000000
      5.41500000	    -50.78563701	     -7.61591118	     11.59766430	      0.02947744	      0.62319109	     -1.17330332	    107.66025714	    -47.83484513	     -4.68838581	     75.40882781	      1.31613233	     10.84551143	    -12.12843203	      0.00000000	    113.08737427	    -23.12961971	     -4.50887845	     68.78067653	      1.20044927	      3.73152146	     -0.36962644	      0.00000000	      0.00000000	      0.00000000	      0.00000000	     44.99992141	    -14.99999999	     44.99992141	     75.00017585	     45.00000026	      0.00000000	      0.00000000	     44.99992141	    -14.99999999	     44.99992141	     75.00017585	     45.00000026	      0.00000000	      0.00000000
      5.42000000	    -50.58139626	     -7.80990551	     11.55444657	      0.03030095	      0.62550771	     -1.17360781	    106.66635919	    -47.84125609	     -5.52287077	     74.98985826	      1.30881993	     10.83091008	    -11.98620523	      0.00000000	    112.75118705	    -23.15552725	     -4.43660912	     68.50407394	      1.19562164	      3.70426968	     -0.16192697	      0.00000000	      0.00000000	      0.00000000	      0.00000000	     44.99992151	    -14.99999999	     44.99992151	     75.00017585	     45.00000026	      0.00000000	      0.00000000	     44.99992151	    -14.99999999	     44.99992151	     75.00017585	     45.00000026	      0.00000000	      0.00000000
      5.42500000	    -50.47385643	     -7.81384708	     11.55646373	      0.03089794	      0.62759145	     -1.17384114	    106.07621587	    -47.80813619	     -5.90919323	     74.60119592	      1.30203649	     10.75354882	    -11.95058782	      0.00000000	    112.36247558	    -23.17525608	     -4.58389372	     68.19596862	      1.19024419	      3.60205777	     -0.05067872	      0.00000000	      0.00000000	      0.00000000	      0.00000000	     44.99992160	    -14.99999999	     44.99992160	     75.00017585	     45.00000026	      0.00000000	      0.00000000	     44.99992160	    -14.99999999	     44.99992160	     75.00017585	     45.00000026	      0.00000000	      0.00000000
      5.43000000	    -50.31611151	     -7.78925150	     11.50967302	      0.03168594	      0.62966940	     -1.17392247	    105.45979318	    -47.73916023	     -6.30898778	     74.24621430	      1.29584090	     10.61091851	    -11.89881036	      0.00000000	    111.92770498	    -23.30314149	     -4.74123559	     67.95010549	      1.18595307	      3.78046653	      0.39462621	      0.00000000	      0.00000000	      0.00000000	      0.00000000	     44.99992169	    -14.99999999	     44.99992169	     75.00017585	     45.00000026	      0.00000000	      0.00000000	     44.99992169	    -14.99999999	     44.99992169	     75.00017585	     45.00000026	      0.00000000	      0.00000000
      5.43500000	    -50.34484118	     -7.63418171	     11.74329782	      0.03189373	      0.63146179	     -1.17460514	    105.36310939	    -47.91741001	     -6.18747149	     73.88712368	      1.28957358	     10.51406478	    -11.84344477	      0.00000000	    111.47943954	    -23.02926604	     -5.14649672	     67.53418416	      1.17869387	      3.47150889	      0.08672160	      0.00000000	      0.00000000	      0.00000000	      0.00000000	     44.99992176	    -14.99999999	     44.99992176	     75.00017585	     45.00000026	      0.00000000	      0.00000000	     44.99992176	    -14.99999999	     44.99992176	     75.00017585	     45.00000026	      0.00000000	      0.00000000
      5.44000000	    -50.34375752	     -7.37801604	     11.72522939	      0.03237354	      0.63319374	     -1.17455084	    105.27117729	    -47.79309829	     -6.04876933	     73.56737281	      1.28399288	     10.37210767	    -11.83291627	      0.00000000	    111.02165281	    -23.14802161	     -5.57563211	     67.24053447	      1.17356872	      3.46120558	      0.24684956	      0.00000000	      0.00000000	      0.00000000	      0.00000000	     44.99992186	    -14.99999999	     44.99992186	     75.00017585	     45.00000026	      0.00000000	      0.00000000	     44.99992186	    -14.99999999	     44.99992186	     75.00017585	     45.00000026	      0.00000000	      0.00000000
